<?xml version="1.0" encoding="utf-8"?>
<!-- Generator: Adobe Illustrator 23.0.0, SVG Export Plug-In . SVG Version: 6.00 Build 0)  -->
<svg version="1.1" id="Layer_1" xmlns="http://www.w3.org/2000/svg" xmlns:xlink="http://www.w3.org/1999/xlink" x="0px" y="0px"
	 width="64px" height="64px" viewBox="0 0 64 64" style="enable-background:new 0 0 64 64;" xml:space="preserve">
<style type="text/css">
	.st0{fill:#FAA31B;}
	.st1{fill:none;}
	.st2{fill:#333333;}
</style>
<ellipse class="st0" cx="14.9" cy="43.2" rx="11.1" ry="3.1"/>
<ellipse class="st0" cx="49.1" cy="43.2" rx="11.1" ry="3.1"/>
<ellipse class="st0" cx="32" cy="14" rx="11.1" ry="3.1"/>
<g>
	<path class="st1" d="M32,27.2c6.4,0,9.7-1.4,10.1-2V22c-2.6,1.2-7,1.6-10.1,1.6c-3,0-7.5-0.4-10.1-1.6v3.2
		C22.2,25.7,25.5,27.2,32,27.2z"/>
	<path class="st1" d="M32,21.6c6.4,0,9.7-1.4,10.1-2v-3.2C39.5,17.6,35,18,32,18c-3,0-7.5-0.4-10.1-1.6v3.2
		C22.2,20.3,25.9,21.6,32,21.6z"/>
	<path class="st1" d="M39,43.3c0.2,0.5,3.5,2,10.1,2c6.4,0,9.7-1.4,10.1-2.1c-0.3-0.6-3.6-2.1-10.1-2.1C42.6,41.2,39.3,42.7,39,43.3
		z"/>
	<path class="st1" d="M32,32.7c6.4,0,9.7-1.4,10.1-2v-3.2c-2.6,1.2-7,1.6-10.1,1.6c-3,0-7.5-0.4-10.1-1.6v3.2
		C22.2,31.4,25.9,32.7,32,32.7z"/>
	<path class="st1" d="M32,16c6.4,0,9.7-1.4,10.1-2.1c-0.3-0.6-3.6-2.1-10.1-2.1c-6.1,0-9.8,1.4-10.1,2.1C22.2,14.7,25.9,16,32,16z"
		/>
	<path class="st1" d="M49.1,56.4c6.4,0,9.7-1.4,10.1-2v-3.2c-2.6,1.2-7,1.6-10.1,1.6c-3,0-7.5-0.4-10.1-1.6v3.2
		C39.3,55,42.6,56.4,49.1,56.4z"/>
	<path class="st1" d="M49.1,50.8c6.4,0,9.7-1.4,10.1-2v-3.2c-2.6,1.2-7,1.6-10.1,1.6c-3,0-7.5-0.4-10.1-1.6v3.2
		C39.3,49.4,42.6,50.8,49.1,50.8z"/>
	<path class="st1" d="M14.9,56.4c6,0,9.7-1.3,10.1-2v-3.2c-2.6,1.2-7,1.6-10.1,1.6c-3,0-7.5-0.4-10.1-1.6v3.2
		C5.1,55.1,8.8,56.4,14.9,56.4z"/>
	<path class="st1" d="M59.2,56.8c-2.6,1.2-7,1.6-10.1,1.6c-3,0-7.5-0.4-10.1-1.6V60c0.3,0.6,3.6,2,10.1,2c6.4,0,9.7-1.4,10.1-2V56.8
		z"/>
	<path class="st1" d="M24.9,56.8c-2.6,1.2-7,1.6-10.1,1.6c-3,0-7.5-0.4-10.1-1.6V60c0.3,0.7,4,2,10.1,2c6,0,9.7-1.3,10.1-2V56.8z"/>
	<path class="st1" d="M27,43.2c0,0,0,0.1,0,0.1v5.3h10.1v-5.4c0,0,0,0,0-0.1c0-2.5,4.6-3.6,8.8-3.9l-5.5-5.5c-2.5,0.7-5.9,1-8.3,1
		c-2.4,0-5.7-0.2-8.2-1l-5.5,5.5C22.4,39.7,27,40.7,27,43.2z"/>
	<path class="st1" d="M14.9,45.3c6,0,9.7-1.3,10.1-2.1c-0.4-0.7-4-2.1-10.1-2.1c-6.1,0-9.8,1.4-10.1,2.1
		C5.1,43.9,8.8,45.3,14.9,45.3z"/>
	<path class="st1" d="M14.9,50.8c6.4,0,9.7-1.4,10.1-2v-3.2c-2.6,1.2-7,1.6-10.1,1.6c-3,0-7.5-0.4-10.1-1.6v3.2
		C5.1,49.4,8.4,50.8,14.9,50.8z"/>
	<path class="st2" d="M61.2,48.8L61.2,48.8l0-5.5c0,0,0-0.1,0-0.1c0-3.2-7.6-4.1-12.1-4.1c-0.2,0-0.4,0-0.6,0L42.3,33
		c0.9-0.5,1.6-1.2,1.7-2h0v-0.2c0,0,0-0.1,0-0.1l0,0v-5.5c0,0,0-0.1,0-0.1l0,0v-5.5c0,0,0-0.1,0-0.1l0,0v-5.5c0,0,0-0.1,0-0.1
		c0-3.2-7.6-4.1-12.1-4.1c-4.5,0-12.1,0.9-12.1,4.1c0,0,0,0,0,0.1v5.5h0c0,0,0,0,0,0.1v5.5h0c0,0,0,0,0,0.1v5.5h0c0,0,0,0,0,0.1V31
		h0c0.1,0.8,0.8,1.5,1.8,2l-6.2,6.2c-0.2,0-0.5,0-0.7,0c-4.5,0-12.1,0.9-12.1,4.1c0,0,0,0,0,0.1v5.5h0c0,0,0,0,0,0.1v5.5h0
		c0,0,0,0,0,0.1v5.5h0c0,0,0,0,0,0.1v0.2h0c0.5,2.9,7.7,3.8,12,3.8s11.6-0.8,12-3.8h0v-0.2c0,0,0-0.1,0-0.1l0,0v-5.4
		c0,0,0-0.1,0-0.1l0,0v-3.7h10.1v3.7h0c0,0,0,0,0,0.1v5.5h0c0,0,0,0,0,0.1v0.2h0c0.5,2.9,7.7,3.8,12,3.8s11.6-0.8,12-3.8h0v-0.2
		c0,0,0-0.1,0-0.1l0,0v-5.5c0,0,0-0.1,0-0.1l0,0v-5.5C61.2,48.9,61.2,48.8,61.2,48.8z M39.1,45.6c2.6,1.2,7,1.6,10.1,1.6
		c3,0,7.5-0.4,10.1-1.6v3.2c-0.3,0.6-3.6,2-10.1,2c-6.5,0-9.8-1.5-10.1-2V45.6z M49.1,52.8c3,0,7.5-0.4,10.1-1.6v3.2
		c-0.3,0.6-3.6,2-10.1,2c-6.5,0-9.8-1.5-10.1-2v-3.2C41.6,52.5,46.1,52.8,49.1,52.8z M59.2,43.2c-0.3,0.6-3.6,2.1-10.1,2.1
		c-6.6,0-9.9-1.5-10.1-2c0.2-0.6,3.5-2.1,10.1-2.1C55.6,41.2,58.9,42.6,59.2,43.2z M32,18c3,0,7.5-0.4,10.1-1.6v3.2
		c-0.3,0.6-3.6,2-10.1,2c-6.1,0-9.8-1.3-10.1-2v-3.2C24.5,17.6,29,18,32,18z M32,23.6c3,0,7.5-0.4,10.1-1.6v3.2
		c-0.3,0.6-3.6,2-10.1,2c-6.5,0-9.8-1.5-10.1-2V22C24.5,23.2,29,23.6,32,23.6z M32,29.2c3,0,7.5-0.4,10.1-1.6v3.2
		c-0.3,0.6-3.6,2-10.1,2c-6.1,0-9.8-1.3-10.1-2v-3.2C24.5,28.8,29,29.2,32,29.2z M32,11.9c6.4,0,9.7,1.4,10.1,2.1
		C41.7,14.6,38.4,16,32,16c-6.1,0-9.8-1.4-10.1-2C22.2,13.3,25.9,11.9,32,11.9z M23.8,33.8c2.5,0.7,5.8,1,8.2,1c2.4,0,5.7-0.3,8.3-1
		l5.5,5.5c-4.2,0.3-8.8,1.4-8.8,3.9c0,0,0,0,0,0.1v5.4H26.9v-5.3c0,0,0-0.1,0-0.1c0-2.5-4.5-3.5-8.7-3.9L23.8,33.8z M14.9,47.3
		c3,0,7.5-0.4,10.1-1.6v3.2c-0.3,0.6-3.6,2-10.1,2c-6.5,0-9.8-1.5-10.1-2v-3.2C7.4,46.9,11.8,47.3,14.9,47.3z M14.9,52.8
		c3,0,7.5-0.4,10.1-1.6v3.2c-0.4,0.7-4,2-10.1,2c-6.1,0-9.8-1.3-10.1-2v-3.2C7.4,52.5,11.8,52.8,14.9,52.8z M14.9,41.2
		c6,0,9.7,1.3,10.1,2.1c-0.4,0.7-4,2.1-10.1,2.1c-6.1,0-9.8-1.4-10.1-2C5.1,42.5,8.8,41.2,14.9,41.2z M14.9,62
		c-6.1,0-9.8-1.3-10.1-2v-3.2c2.6,1.2,7,1.6,10.1,1.6c3,0,7.5-0.4,10.1-1.6V60C24.6,60.7,20.9,62,14.9,62z M49.1,62
		c-6.5,0-9.8-1.5-10.1-2v-3.2c2.6,1.2,7,1.6,10.1,1.6c3,0,7.5-0.4,10.1-1.6V60C58.9,60.6,55.6,62,49.1,62z"/>
</g>
</svg>
